<svg xmlns="http://www.w3.org/2000/svg" fill="#ffffff" height="800" width="800" viewBox="0 0 203.079 203.079" xmlns:v="https://vecta.io/nano"><path d="M192.231 104.082V102c0-12.407-10.094-22.5-22.5-22.5a22.39 22.39 0 0 0-7.961 1.459C159.665 70.722 150.583 63 139.731 63c-2.947 0-5.76.575-8.341 1.61C128.667 55.162 119.624 48 109.231 48a22.01 22.01 0 0 0-8 1.516V22.5c0-12.407-10.094-22.5-22.5-22.5s-22.5 10.093-22.5 22.5v66.259c-3.938-5.029-8.673-9.412-14.169-11.671-6.133-2.52-12.587-2.219-18.667.872-11.182 5.686-15.792 19.389-10.277 30.548l27.95 56.563c.79 1.552 19.731 38.008 54.023 38.008h40c31.54 0 57.199-25.794 57.199-57.506l-.031-41.491h-.028zm-57.139 83.997h-40c-24.702 0-40.091-28.738-40.646-29.796l-27.88-56.42c-1.924-3.893-.33-8.519 3.629-10.532 2.182-1.11 4.081-1.223 6.158-.372 8.281 3.395 16.41 19.756 19.586 29.265l2.41 7.259 12.883-4.559V22.5a7.51 7.51 0 0 1 7.5-7.5 7.51 7.51 0 0 1 7.5 7.5V109h.136 14.864.136V71c0-4.187 3.748-8 7.864-8 4.262 0 8 3.505 8 7.5v15 26h15v-26a7.51 7.51 0 0 1 7.5-7.5 7.51 7.51 0 0 1 7.5 7.5V102v16.5h15V102a7.51 7.51 0 0 1 7.5-7.5 7.51 7.51 0 0 1 7.5 7.5v10.727h.035l.025 32.852c-.001 23.435-18.932 42.5-42.2 42.5z"/></svg>