<svg xmlns="http://www.w3.org/2000/svg" width="60" height="60" xmlns:v="https://vecta.io/nano"><path d="M30 60C13.43 60 0 46.57 0 30S13.43 0 30 0s30 13.43 30 30-13.43 30-30 30zm0 0" fill="rgb(94.117647%,35.686275%,13.725491%)"/><path d="M17.199 12.398a1.58 1.58 0 0 0-1.129.469l-3.203 3.203a1.6 1.6 0 0 0 0 2.262L24.539 30 12.867 41.668a1.6 1.6 0 0 0 0 2.262l3.203 3.203a1.6 1.6 0 0 0 2.262 0L30 35.461l11.668 11.672a1.6 1.6 0 0 0 2.262 0l3.203-3.203a1.6 1.6 0 0 0 0-2.262L35.461 30l11.672-11.668a1.6 1.6 0 0 0 0-2.262l-3.203-3.203a1.6 1.6 0 0 0-2.262 0L30 24.539 18.332 12.867c-.312-.312-.723-.469-1.133-.469zm0 0" fill="rgb(100%,100%,100%)"/></svg>