<?xml version="1.0" encoding="utf-8"?>
<!-- Generator: Adobe Illustrator 24.0.1, SVG Export Plug-In . SVG Version: 6.00 Build 0)  -->
<svg version="1.1" xmlns="http://www.w3.org/2000/svg" xmlns:xlink="http://www.w3.org/1999/xlink" x="0px" y="0px"
	 viewBox="0 0 645 853" style="enable-background:new 0 0 645 853;" xml:space="preserve">
<style type="text/css">
	.st0{fill:#368AAD;}
	.st1{fill:#090808;}
</style>
<g id="Layer_6_xA0_Image_1_">
	<g>
		<g>
			<path class="st0" d="M554.63,342.68c-1.48-1.47-2.6-2.6-3.72-3.71c-1.48-1.46-2.98-2.9-4.43-4.39c-2.72-2.82-4.73-6.06-5.44-9.96
				c-0.78-4.22-2.57-8.25-2.36-12.68c0.06-1.22-0.51-2.49-0.9-3.69c-0.3-0.9-0.8-1.74-1.18-2.62c-1.76-4.09-1.17-5.29,3.25-5.33
				c4.65-0.04,9.23-0.5,13.82-1.09c2.76-0.36,5.24,0.13,7.54,2.11c2.77,2.39,5.86,4.44,9.27,5.91c1.06,0.45,2.06,0.9,3.11-0.02
				c1.12-0.99,1.33-2.23,0.75-3.48c-1.61-3.48-3.28-6.93-5.05-10.34c-3.09-5.96-6.23-11.9-8.64-18.17c-1.41-3.66-4.02-6.5-6.1-9.7
				c-0.62-0.95-1.75-1.35-2.8-1.77c-4.9-1.96-9.67-4.22-14.28-6.79c-1.16-0.65-2.47-0.66-3.63-1.15c-1.39-0.59-2.4-0.18-3.54,0.59
				c-2.92,1.95-5.67,4.15-8.86,5.71c-6.05,2.95-12.15,5.71-18.85,6.85c-0.47,0.08-0.95,0.22-1.36,0.45
				c-1.97,1.11-3.77,0.84-5.89,0.07c-2.5-0.91-5.29-1.03-7.94-1.51c-5.65-1.04-11.34-1.9-16.92-3.21
				c-4.14-0.97-8.31-0.97-12.38-0.55c-7.92,0.82-15.8,2.09-23.47,4.39c-1.85,0.55-3.68,1.12-5.37,2.01
				c-7.07,3.74-14.05,7.62-20.73,12.03c-1.88,1.24-3.68,2.55-4.91,4.5c-1.16,1.84-2.89,2.96-4.94,3.59
				c-5.02,1.55-9.97,3.26-15.32,3.62c-4.76,0.33-9.46,1.48-14.27,1.57c-0.69,0.01-1.24,0.56-1.28,1.21
				c-0.43,8.03-3.37,15.6-4.28,23.52c-0.52,4.6-1.12,9.22-1.09,13.83c0.04,8.17-0.61,16.27-1.25,24.39
				c-0.07,0.95-0.08,1.92-0.02,2.87c0.09,1.68,0.84,3.06,2.07,4.19c1.59,1.47,2.75,1.61,4.77,0.75c1.84-0.78,3.3-1.96,4.27-3.69
				c0.86-1.53,1.65-3.1,2.39-4.69c1.69-3.62,3.41-7.22,4.96-10.9c1.52-3.58,3.8-6.66,6.09-9.72c1.95-2.6,4.79-4.18,7.74-5.47
				c1.19-0.52,2.11,0.12,2.3,1.56c0.29,2.21,0.47,4.44,0.75,6.66c0.29,2.26,1.21,3.02,3.53,2.87c0.95-0.06,1.88-0.41,2.83-0.46
				c1.27-0.06,2.58-0.14,3.81,0.1c2.56,0.51,3.56,2.97,2.21,5.15c-0.34,0.54-0.78,1.01-1.2,1.49c-0.73,0.84-1.52,1.65-2.22,2.52
				c-0.69,0.86-1.88,1.65-1.64,2.79c0.32,1.52,1.86,0.69,2.85,0.93c1.48,0.36,2.09,1.39,1.53,2.83c-0.17,0.44-0.42,0.86-0.65,1.28
				c-0.44,0.83-1.31,1.47-1.25,2.51c0.06,1.17,1.21,1.37,1.94,1.92c1.38,1.05,2.05,2.4,1.95,4.14c-0.05,0.8,0.07,1.63-0.12,2.39
				c-0.67,2.58,0.14,4.48,1.9,6.5c2.73,3.13,4.6,6.91,6.51,10.6c1.55,2.98,3.07,5.97,5.11,8.65c2.91,3.82,3.98,8.37,4.52,12.96
				c0.64,5.47,2.38,10.6,4.36,15.64c1.11,2.83,1.35,5.17-0.85,7.48c-1.53,1.6-1.67,3.75-1.96,5.79c-0.22,1.52,0.3,2.29,1.85,2.95
				c1.47,0.63,3.01,1.09,4.48,1.69c2.53,1.05,3.11,2.03,3.01,4.78c-0.07,1.98-0.89,3.69-1.73,5.43c-1.65,3.43-2.11,4.14,1.96,5.61
				c0.6,0.21,1.14,0.6,1.74,0.81c3.29,1.18,5.43,3.28,5.67,6.95c0.15,2.35,1.65,3.31,3.8,3.52c0.95,0.09,1.96,0.39,2.83,0.16
				c2.32-0.6,3.62,0.66,4.81,2.28c2.24,3.06,3.14,6.67,3.8,10.26c0.64,3.51,1.44,6.84,3.52,9.82c0.62,0.89,1.01,2.01,1.28,3.08
				c1.39,5.48,3.85,10.5,6.64,15.35c3.18,5.54,6.55,10.99,10.46,16.06c1.55,2.02,3.21,3.97,4.92,5.87c3.74,4.15,7.59,8.2,11.3,12.38
				c3.71,4.18,7.75,8.03,11.77,11.9c4.72,4.54,9.3,9.24,14.64,13.08c0.71,0.51,0.86,1.31,0.31,2.11c-0.83,1.2-1.84,2.18-3.03,3.03
				c-6.26,4.45-12.52,8.88-18.72,13.41c-5.29,3.87-10.73,7.5-16.53,10.57c-4.66,2.47-9.23,5.1-13.92,7.5
				c-8.96,4.59-17.96,9.1-26.97,13.6c-4.15,2.08-8.38,3.96-12.8,5.41c-1.52,0.5-2.99,1.13-4.46,1.75
				c-5.46,2.3-11.01,4.27-16.85,5.43c-3.28,0.66-6.54,1.59-9.67,2.76c-6.64,2.49-13.49,4.01-20.49,4.79
				c-9.04,1.02-18.08,1.96-27.2,2.37c-5.57,0.25-11.23-0.09-16.72,0.9c-5.11,0.92-10.18,0.8-15.29,0.59
				c-2.55-0.11-5.07-0.68-7.62-0.81c-3.19-0.17-6.39-0.2-9.59-0.1c-4.32,0.13-8.63,0.51-12.88-0.63c-0.75-0.2-1.59-0.15-2.39-0.14
				c-6.11,0.1-12.08-0.85-17.99-2.34c-8.06-2.03-16.18-3.75-24.47-4.58c-1.74-0.17-3.51-0.46-5.17-1.01
				c-6.98-2.31-14.13-4.03-21.06-6.55c-7.2-2.63-14.32-5.48-21.6-7.91c-6.79-2.27-13.49-4.95-19.87-8.32
				c-1.55-0.82-3.23-1.38-4.85-2.07c-4.15-1.76-7.94-4.11-11.31-7.11c-0.87-0.78-0.77-1.67,0.24-2.37c1.05-0.72,2.1-1.48,3.25-2.04
				c6.74-3.25,12.02-8.38,17.37-13.41c2.56-2.41,5-4.93,7.7-7.2c3.32-2.79,5.79-6.39,8.49-9.73c6.61-8.19,13.07-16.51,19.58-24.79
				c0.79-1,1.61-2.02,2.18-3.15c3.37-6.56,7.73-12.49,11.87-18.56c4.33-6.35,7.77-13.21,11.68-19.8c2.85-4.8,5.59-9.67,8.44-14.47
				c5.55-9.35,10.46-19,14.57-29.1c2.94-7.23,6.59-14.18,9.85-21.28c2.73-5.95,5.34-11.95,8.04-17.91c1.45-3.2,2.9-6.41,4.49-9.54
				c1.45-2.87,2.57-5.84,3.54-8.89c3.86-12.18,7.41-24.44,9.62-37.05c0.58-3.29,1.62-6.5,2.53-9.72c0.74-2.62,1.33-5.25,1.68-7.95
				c0.65-4.91,0.96-5.2,6.06-6.59c1.23-0.34,2.44-0.77,3.63-1.23c0.57-0.22,1.08-0.62,1.59-0.93c-0.41-1.64-1.95-1.67-2.95-2.36
				c-1.58-1.08-3.27-2-4.85-3.08c-0.31-0.21-0.53-0.85-0.46-1.23c0.07-0.37,0.52-0.85,0.89-0.94c1.39-0.33,2.82-0.5,4.23-0.79
				c0.24-0.05,0.54-0.35,0.59-0.58c0.06-0.27-0.03-0.71-0.23-0.86c-1-0.78-2.1-1.45-3.09-2.25c-1.26-1.02-1.17-2.04,0.2-3.08
				c0.25-0.19,0.58-0.29,0.84-0.47c1.23-0.87,1.33-1.54,0.21-2.56c-1.06-0.97-2.22-1.83-3.35-2.7c-0.63-0.49-1.31-0.92-1.98-1.35
				c-0.68-0.43-1.44-0.86-1.41-1.77c0.04-0.92,0.83-1.23,1.58-1.56c1.89-0.84,3.79-1.68,5.63-2.63c0.9-0.47,1.04-1.76,0.35-2.49
				c-0.65-0.69-1.39-1.31-2.13-1.91c-3.97-3.17-5.21-6.96-3.78-11.85c0.4-1.37,0.97-2.7,1.45-4.05c0.49-1.35,1.02-2.69,1.45-4.06
				c1.2-3.91,0.48-7.22-3.09-9.62c-0.79-0.53-1.51-1.18-2.24-1.8c-1.28-1.09-2.05-2.43-1.92-4.18c0.03-0.48,0.09-1-0.06-1.43
				c-1.92-5.77-0.97-11.72-1.17-17.6c-0.04-1.28-0.03-2.56,0-3.84c0.16-6.4,0.06-12.76-1.88-18.97c-0.81-2.59-0.91-5.32-0.86-8.06
				c0.09-4.48-0.03-8.95,0.04-13.43c0.07-4.01-0.19-7.95-1.03-11.89c-0.6-2.79-0.8-5.68-0.96-8.54c-0.1-1.8-0.86-3.03-2.3-3.93
				c-2.07-1.3-4.11-0.88-5.28,1.32c-1.12,2.11-2.04,4.33-2.89,6.57c-1.91,5.08-3.17,10.44-5.84,15.19
				c-3.16,5.61-4.67,11.87-7.42,17.64c-1.35,2.83-1.6,6.16-2.53,9.21c-1.5,4.88-3.14,9.72-4.73,14.57
				c-0.55,1.67-1.18,3.31-1.69,4.98c-0.47,1.54-1.09,2.99-2.08,4.28c-1.35,1.77-2.97,2.69-5.31,2.62c-4.8-0.14-9.6-0.07-14.4-0.04
				c-1.6,0.01-3.26-0.14-4.77,0.25c-4.56,1.17-9.25,0.41-13.83,1.11c-3.34,0.51-5.55-0.86-6.87-3.87
				c-2.11-4.84-4.85-9.34-7.46-13.91c-0.92-1.62-1.48-3.59-1.67-5.45c-0.48-4.84-2.15-9.33-3.65-13.86
				c-3.51-10.61-7.21-21.15-10.88-31.71c-0.36-1.04-0.79-2.18-1.53-2.93c-1.71-1.73-3.05-1.36-3.52,0.64
				c-0.88,3.73-1.73,7.46-2.42,11.23c-1.29,7.07-2.79,14.12-3.6,21.25c-1.21,10.64-4.09,21.02-4.9,31.71
				c-0.35,4.66-1.65,9.09-2.93,13.54c-0.62,2.14-0.9,4.37-1.33,6.57c-0.18,0.94-0.3,1.9-0.55,2.81c-0.47,1.68-1.58,2.71-3.34,3.05
				c-1.54,0.29-3.21,0.2-4.53,1.6c0.46,1.86,1.86,3.23,2.88,4.81c1.31,2.04,0.84,3.86-1.5,4.5c-2.76,0.76-4.32,2.55-5.5,4.9
				c-0.49,0.98-0.28,1.88,0.63,2.52c0.52,0.37,1.1,0.66,1.67,0.92c2.26,1.03,2.05,3.56,0.72,4.79c-1.99,1.83-4.14,3.5-6.26,5.27
				c0.4,1.39,1.86,2.02,2.64,3.2c0.71,1.08,0.77,2.11-0.17,3.04c-1.25,1.23-2.64,2.31-3.95,3.48c-0.95,0.85-1.91,1.69-2.76,2.64
				c-0.57,0.64-0.57,1.45-0.07,2.21c0.09,0.13,0.17,0.27,0.27,0.39c0.9,1.08,2.2,2,1.75,3.7c-0.4,1.52-1.77,2.21-2.88,3.09
				c-1.77,1.42-3.86,2.25-5.93,3.09c-2.22,0.9-4.44,1.8-6.18,3.39c-0.52,0.9,0.3,1.15,0.64,1.6c1.41,1.85,1.37,2.62-0.37,3.93
				c-4.15,3.11-8.81,5.2-13.74,6.66c-2.02,0.6-3.95,1.36-5.7,2.47c-1.77,1.12-3.54,2.1-5.56,2.05c-0.17,0.59-0.4,0.93-0.32,1.17
				c1.54,4.63-0.23,8.13-3.79,10.95c-3.52,2.78-6.71,5.9-9.9,9.03c-1.93,1.9-4.01,3.63-6.61,4.67c-1.31,0.52-2.42,1.54-3.64,2.3
				c-1.76,1.1-3.45,2.34-5.31,3.22c-7.65,3.61-14.99,7.85-22.85,11.05c-9.36,3.81-19.05,6.48-28.82,8.94
				c-5.26,1.33-10.6,2.38-15.88,3.61c-2.05,0.48-4.1,0.6-6.19,0.55c-1.4-0.03-2.42-0.63-3.09-1.89c-2.47-4.65-5.38-9.09-5.96-14.54
				c-0.15-1.4-0.73-2.78-1.23-4.12c-0.95-2.58-1.52-5.19-1.47-7.96c0.02-1.26-0.23-2.54-0.49-3.78c-1.42-6.88-2.73-13.77-3.64-20.73
				c-0.1-0.79-0.21-1.59-0.23-2.38C0.4,342.9,0.13,333.16,0,323.42c-0.04-2.87,0.27-5.74,0.49-8.61c0.25-3.18,0.54-6.36,0.87-9.54
				c0.66-6.53,2.18-12.9,3.83-19.24c0.97-3.7,1.97-7.41,2.72-11.16c1.23-6.1,2.36-12.23,3.36-18.37c0.61-3.77,0.96-7.59,1.31-11.4
				c0.76-8.29,2.29-16.38,4.98-24.32c2.97-8.77,6.18-17.46,9.12-26.24c1.54-4.6,3.51-8.92,6.41-12.79
				c6.72-8.96,12.32-18.67,18.78-27.81c3.42-4.83,6.54-9.86,9.34-15.07c1.92-3.56,4.41-6.64,7-9.69c2.59-3.04,5.32-5.97,7.65-9.2
				c5.91-8.2,12.79-15.51,19.84-22.72c7.17-7.34,15.02-13.85,23.08-20.15c4.41-3.45,9.02-6.6,13.61-9.79
				c3.93-2.73,7.69-5.72,11.35-8.8c3.45-2.89,7.17-5.36,11.01-7.66c7-4.19,14.03-8.31,20.74-12.96c1.83-1.27,3.81-2.35,5.81-3.34
				c5.72-2.85,11.48-5.62,17.25-8.38c1.29-0.62,2.64-1.18,4.01-1.57c7.53-2.11,14.87-4.85,22.55-6.46c3.27-0.68,6.51-1.66,9.67-2.74
				c7.25-2.49,14.62-4.59,21.75-7.49c4.55-1.85,9.41-3.07,14.23-4.13c3.88-0.86,7.94-0.9,11.86-1.61c7.13-1.28,14.33-1.11,21.51-1.3
				c5.11-0.13,10.2-0.17,15.32-0.57c6.35-0.5,12.75-0.42,19.15,0.27c5.23,0.56,10.54,0.37,15.81,0.66
				c5.9,0.32,11.77,1.04,17.66,1.51c10.26,0.83,20.1,3.71,30.19,5.33c4.11,0.66,8.02,2.09,11.96,3.44
				c7.56,2.58,15.23,4.84,22.78,7.43c9.39,3.23,18.2,7.75,27.01,12.3c8.69,4.48,16.82,9.85,25.24,14.76
				c5.1,2.98,10.04,6.24,15.03,9.41c3.11,1.98,5.98,4.27,8.71,6.74c1.42,1.28,2.83,2.61,4.38,3.72c5.61,4.01,10.6,8.75,15.63,13.42
				c7.5,6.96,14.78,14.16,22.26,21.14c5.63,5.25,10.74,10.94,15.52,16.96c3.38,4.25,6.94,8.35,10.76,12.23
				c3.48,3.53,6.64,7.37,8.72,11.96c0.39,0.87,0.86,1.73,1.43,2.49c3.78,4.98,6.76,10.46,10.06,15.74
				c3.23,5.16,6.24,10.41,8.96,15.84c2.93,5.86,5.96,11.67,8.93,17.5c0.36,0.71,0.78,1.42,0.98,2.18
				c1.68,6.52,4.78,12.51,6.85,18.91c2.06,6.38,4.26,12.72,6.09,19.17c2.26,7.99,3.93,16.13,5.06,24.37
				c0.54,3.95,1.2,7.91,2.19,11.76c1.76,6.87,2.4,13.86,2.66,20.88c0.18,5.11,0.52,10.2,0.85,15.3c0.2,3.03,0.21,6.07,0.28,9.1
				c0.11,4.63,0.19,9.26,0.31,13.89c0.15,6.08-0.44,12.1-1.14,18.15c-0.58,5.03-1.19,10.14-0.64,15.26c0.14,1.27,0.27,2.61,0,3.82
				c-0.95,4.26-0.63,8.59-0.91,12.89c-0.37,5.81-2.38,11.23-3.96,16.74c-0.57,1.99-1.34,3.93-2.12,5.85
				c-0.81,1.98-1.85,2.41-4.16,1.91c-4.85-1.05-9.48-2.69-13.82-5.13c-3.23-1.83-5.73-4.57-8.64-6.81
				c-1.08-0.83-1.39-2.17-1.15-3.49c0.39-2.13-0.25-4.13-0.66-6.15c-0.26-1.28-0.93-2.38-1.99-3.19c-1.4-1.07-3.12-0.93-4.25,0.44
				c-1.02,1.23-1.87,2.6-2.92,3.8c-2.49,2.83-4.86,2.67-6.95-0.55c-1.66-2.57-2.93-5.33-2.77-8.52c0.03-0.64,0.03-1.28,0.01-1.92
				c-0.05-1.92-0.38-2.37-2.12-2.44c-2.08-0.08-4.16-0.11-6.24-0.03c-4.25,0.16-8.25-0.86-12.09-2.56c-2.5-1.11-4.88-2.46-5.88-5.3
				c-0.46-1.32-1.61-1.94-2.7-2.6c-1.48-0.88-2.55-2.18-2.52-3.84c0.05-2.79-1.53-4.41-3.51-5.88c-0.38-0.29-0.79-0.55-1.14-0.88
				c-1.33-1.26-1.39-2.3-0.16-3.73C553.08,344.01,553.71,343.53,554.63,342.68z"/>
			<path class="st1" d="M469.79,353.77c0.2,1.39,0.49,2.8,0.58,4.22c0.19,3.01-1.7,5.62-4.61,6.45c-1.37,0.39-2.52-0.1-3.46-1.09
				c-1.13-1.19-1.8-2.64-2.08-4.24c-0.22-1.24-0.3-2.5-0.43-3.66c-1.39-0.67-2.28,0.28-3.28,0.64c-1.05,0.37-2.03,0.94-3.08,1.3
				c-2.41,0.81-4.57-0.52-4.87-3.02c-0.35-2.91-0.08-5.78,1.44-8.34c2.69-4.54,6-8.04,11.84-8.56c3.38-0.3,6.7-0.07,9.97,0.27
				c2.98,0.31,5.65,1.96,7.8,4.29c3.25,3.51,2.74,8.04-3.02,9.83c-0.74,0.23-1.58,0.17-2.38,0.2
				C472.57,352.11,471.11,352.6,469.79,353.77z"/>
		</g>
		<g>
			<path d="M253.92,334.74c-1.79,1.43-2,2.99-2.16,4.61c-0.22,2.28-1.05,4.33-2.64,6.01c-1.69,1.79-4.2,1.28-4.85-1.12
				c-0.41-1.51-0.27-3.15-0.47-4.72c-0.22-1.72-0.42-3.46-0.84-5.14c-0.37-1.51-1.52-2.43-3.06-2.69c-1.57-0.26-3.16-0.37-4.74-0.57
				c-3.03-0.38-4.27-1.86-3.82-4.8c0.16-1.07,0.53-2.23,1.17-3.06c1.05-1.37,2.26-2.72,3.66-3.7c4.56-3.2,9.71-4.65,15.28-4.38
				c4.55,0.22,8.5,3.31,9.7,7.8c0.65,2.43,1.09,5,1.11,7.51c0.03,3.64-1.94,5.2-5.51,4.83C255.83,335.2,254.91,334.94,253.92,334.74
				z"/>
		</g>
	</g>
</g>
<g id="Layer_3_xA0_Image_3_">
	<g>
		<path d="M141.03,667.3c2.55,0.12,5.09,0.22,7.64,0.36c4.41,0.25,8.81,0.63,13.22,0.78c7.93,0.28,15.48,2.26,22.67,5.38
			c9.26,4.02,17.03,9.88,21.2,19.53c1.14,2.65,2.36,5.27,3.37,7.96c1.25,3.35,2.1,6.81,1.93,10.45c-0.09,1.86-0.08,3.74,0,5.61
			c0.27,5.87-1.1,11.44-2.99,16.93c-2.11,6.12-4.51,12.08-8.36,17.37c-2.86,3.93-6.71,6.7-10.6,9.44c-0.8,0.57-1.85,0.85-2.82,1.1
			c-4.27,1.09-8.53,2.31-12.86,3.12c-4.33,0.81-8.74,1.22-13.12,1.74c-5.57,0.66-11.14,1.21-16.71,1.88
			c-6.8,0.82-13.56,0.73-20.29-0.54c-3.25-0.62-4-1.33-3.94-4.77c0.12-7.47-0.48-14.95,0.54-22.4c0.23-1.68,0.26-3.39,0.23-5.09
			c-0.16-10.69-0.4-21.38-0.54-32.07c-0.04-3.39,0.14-6.79,0.21-10.18c0.07-3.91,0.07-7.81,0.2-11.72
			c0.12-3.73,0.29-7.46,0.57-11.19c0.23-3.08,0.95-3.75,4.18-3.8c5.43-0.09,10.87-0.02,16.3-0.02
			C141.03,667.21,141.03,667.26,141.03,667.3z M143.11,747.5c0.54,0.23,0.98,0.56,1.45,0.59c7.12,0.5,14.27,0.63,21.36-0.04
			c7.3-0.69,13.33-3.83,16.74-10.81c1.79-3.65,3.66-7.27,5.47-10.91c1.95-3.95,2.13-8.2,1.77-12.45c-0.17-2.01-0.92-3.96-1.34-5.95
			c-2.1-10.01-12.12-20.6-24.38-21.33c-1.53-0.09-3.06-0.06-4.58-0.14c-2.88-0.15-5.75-0.44-8.62-0.48
			c-2.81-0.04-5.7-0.67-8.92,0.49C143.46,706.88,142.21,727.18,143.11,747.5z"/>
		<path d="M408.71,769.66c0.47,0.77,1.1,1.58,1.49,2.49c1.67,3.9,4.75,6.17,8.66,7.32c6.13,1.8,12.06,1.66,17.55-2.19
			c1.64-1.15,2.84-2.57,3.08-4.47c0.6-4.65,0.4-9.32,0.14-14.2c-1.83,0.25-2.68,1.37-3.66,2.21c-7.86,6.71-22.45,8.19-32.02,1.91
			c-2.13-1.4-4.25-2.81-6.36-4.24c-7.93-5.38-11.48-13.15-12.09-22.45c-0.55-8.41,0.32-16.68,3.9-24.39
			c4.05-8.73,10.69-14.83,19.99-17.64c8.44-2.56,16.78-2.14,24.82,1.78c1.06,0.52,2.18,0.92,3.28,1.36c0.15,0.06,0.33,0.05,0.5,0.07
			c1.93-3.2,2.55-3.75,5.83-3.88c3.72-0.15,7.46-0.14,11.19-0.04c2.82,0.07,4,1.45,3.83,4.24c-0.38,5.93-0.94,11.84-1.2,17.77
			c-0.24,5.42-0.29,10.86-0.21,16.29c0.16,11.88,0.51,23.76,0.69,35.64c0.11,6.93-2.75,13.07-6.6,18.42
			c-3.95,5.49-9.98,8.67-16.61,10.21c-4.48,1.04-9.02,1.36-13.62,0.18c-4.76-1.22-9.63-2.02-14.43-3.12
			c-1.3-0.3-2.65-0.79-3.73-1.54c-6.04-4.17-10.38-9.67-12.8-16.66c-1.41-4.07-0.23-5.6,4.05-6.08c1.84-0.21,3.74-0.09,5.6,0.06
			C402.82,768.93,405.67,769.32,408.71,769.66z M404.37,729.69c0.42,2.31,0.58,4.71,1.3,6.93c3.44,10.65,18.75,13.99,27.06,6.7
			c0.5-0.44,1-0.94,1.36-1.5c4.73-7.31,6.45-14.86,1.72-22.89c-0.51-0.87-0.87-1.86-1.48-2.66c-0.81-1.06-1.72-2.08-2.72-2.97
			c-3.8-3.37-13.08-4.75-17.88-0.11c-0.36,0.35-0.79,0.64-1.21,0.93C407,717.83,404.33,722.98,404.37,729.69z"/>
		<path d="M354.61,758.43c-3.72,3.36-7.54,4.74-11.3,6.25c-2.9,1.16-5.86,1.66-8.97,1.49c-5.98-0.33-11.79-1.44-17.33-3.75
			c-1.24-0.52-2.58-1.08-3.5-2c-2.88-2.87-5.66-5.86-8.34-8.92c-2.07-2.36-3.02-5.27-3.46-8.35c-0.83-5.73-1.29-11.52-0.84-17.28
			c0.45-5.78,1.82-11.44,5.02-16.4c1.36-2.11,3.07-4.1,4.96-5.77c4.19-3.7,8.34-7.48,13.89-9.21c3.47-1.08,6.94-1.62,10.54-0.93
			c3.17,0.61,6.36,1.13,9.48,1.94c1.78,0.46,3.43,1.42,5.12,2.18c1.95,0.87,3.8,2.04,6.01,2.53c0.51-6.2,0.51-6.17,6.72-6.34
			c1.69-0.04,3.38-0.25,5.07-0.42c1.01-0.1,2.02-0.34,3.03-0.37c2.79-0.1,4.31,1.04,4.38,3.78c0.13,5.09,0.08,10.19-0.09,15.28
			c-0.18,5.76-0.71,11.51-0.84,17.27c-0.16,7.3,0.04,14.6-0.13,21.9c-0.13,5.6-0.56,11.18-0.9,16.77c-0.26,4.31-1.44,8.37-3.7,12.06
			c-3.47,5.68-7.15,11.23-13.55,14.07c-2.16,0.96-4.4,1.84-6.7,2.35c-3.14,0.7-6.37,1.02-9.56,1.47c-4.67,0.66-9.18,0.01-13.41-2.03
			c-3.36-1.62-6.68-3.35-9.9-5.22c-4.73-2.75-6.7-7.52-8.4-12.35c-0.67-1.9-1.03-3.94-1.31-5.95c-0.25-1.77,0.8-2.84,2.66-2.98
			c1.01-0.08,2.04-0.02,3.06-0.02c3.57,0.02,7.14,0.14,10.7,0.01c1.71-0.06,2.98,0.38,3.95,1.75c0.49,0.69,0.95,1.41,1.44,2.1
			c3.19,4.51,8.05,6.03,13.09,7.13c0.92,0.2,2.18,0.06,2.95-0.44c2.83-1.84,5.6-3.79,8.2-5.94c0.81-0.67,1.12-2.05,1.46-3.17
			C355.26,767.13,355.35,763.27,354.61,758.43z M355.55,726.81c0.45-3.32-0.76-6.93-3.81-9.78c-2.62-2.45-5.63-4.28-8.98-5.67
			c-6.13-2.56-11.27-0.94-15.88,3.31c-0.98,0.91-1.81,2.02-2.55,3.14c-3.01,4.53-4.11,9.58-4.23,14.97
			c-0.08,3.91,1.09,7.36,3.16,10.55c1.83,2.82,4.51,4.73,7.71,5.47c3.82,0.88,7.78,1.02,11.63,0.06c1.43-0.36,2.96-1,4.04-1.97
			C352.32,741.78,355.51,735.43,355.55,726.81z"/>
		<path d="M509.39,768.78c-7.46,0.34-14.96-1.6-22.18-4.81c-0.92-0.41-1.9-0.86-2.62-1.54c-5.11-4.77-9.61-9.8-11.95-16.75
			c-3.67-10.9-2.71-21.48,1.05-31.9c1.83-5.08,4.96-9.59,9.6-12.86c7.84-5.53,16.36-8.86,26.05-8.91c4.08-0.02,8.19-0.29,12.14,0.93
			c2.41,0.74,4.88,1.59,7.01,2.9c8.64,5.28,14.47,12.86,16.89,22.68c1,4.06,1.25,8.45,0.99,12.63c-0.42,6.6-1.76,13.1-4.86,19.11
			c-2.96,5.72-6.88,10.36-12.7,13.45C521.49,767.57,518.35,768.61,509.39,768.78z M507.65,709.66c-5.8,0.34-10.51,2.27-14.08,6.56
			c-4.01,4.83-5.65,10.32-4.43,16.57c0.16,0.83,0.26,1.67,0.38,2.51c1.27,8.79,6.68,14.27,15.49,15.69
			c0.84,0.13,1.68,0.26,2.52,0.33c6.33,0.53,11.3-2.16,14.86-7.09c3.35-4.64,5.22-9.88,3.51-15.79c-0.33-1.13-0.32-2.37-0.69-3.48
			c-0.85-2.56-1.65-5.17-2.83-7.58c-1.46-2.97-3.91-5.2-7.03-6.24C512.8,710.3,510.05,710.1,507.65,709.66z"/>
		<path d="M255.71,692.91c8.95-0.61,17.09,2.6,23.97,8.55c8.48,7.34,13.21,16.84,12.99,28.18c-0.14,7.32-2.02,14.41-5.22,21.07
			c-2.37,4.93-6.32,8.32-10.87,11.13c-7.02,4.34-14.67,6.39-22.84,5.32c-4.67-0.61-9.2-2.25-13.83-3.28
			c-3.59-0.8-6.54-2.73-9.43-4.83c-4.07-2.96-7.01-6.79-9.13-11.38c-3.33-7.21-3.91-14.71-2.63-22.38c0.67-4,1.86-7.92,2.86-11.87
			c0.77-3.02,2.34-5.6,4.37-7.95c3.49-4.06,7.71-7.33,12.51-9.45c4.3-1.9,9.05-2.83,13.83-3.11
			C253.29,692.86,254.31,692.91,255.71,692.91z M273.82,728.74c-0.02-0.35-0.07-1.54-0.19-2.72c-0.27-2.6-1.25-4.82-3.01-6.86
			c-5.19-6.01-11.63-7.92-19.24-6.25c-2.15,0.47-4.27,1.14-6.34,1.88c-0.91,0.33-1.95,0.87-2.48,1.63
			c-2.62,3.78-4.95,7.69-4.88,12.58c0.11,7.08,3.02,12.93,8.15,17.48c4.78,4.24,10.64,5.07,16.76,3.27
			c1.78-0.52,3.57-1.33,4.61-3.01c1.87-3.03,3.83-6.04,5.37-9.24C273.75,735.09,274.21,732.35,273.82,728.74z"/>
	</g>
</g>
<g id="Layer_3_xA0_Image_1_">
	<g>
		<path d="M551.85,850.29c-2.52,0.71-4.45,1.32-6.42,1.79c-1.9,0.45-3.64,0.03-5.32-1.04c-6.52-4.12-7.53-13.57-2.06-18.96
			c2.72-2.68,6.02-2.86,9.44-2.67c1.46,0.08,2.9,0.6,4.64,0.98c0.16-0.89,0.38-1.66,0.41-2.44c0.08-2.03-0.01-4.07,0.11-6.1
			c0.11-1.9,0.81-2.21,3.8-1.8c0.08,0.59,0.24,1.24,0.24,1.89c-0.02,8.47-0.06,16.95-0.1,25.42c0,0.85,0.03,1.7-0.04,2.54
			c-0.09,1.07-1.05,1.84-2.16,1.55C553.45,851.21,552.6,850.64,551.85,850.29z M552.64,839.85c-0.12-0.61-0.25-1.63-0.54-2.59
			c-0.73-2.46-2.19-4.29-4.9-4.53c-2.65-0.23-5.11,0.52-6.89,2.58c-2.13,2.46-2.08,7.98-0.05,10.54c1.96,2.49,5.37,3.31,8.22,1.97
			C551.7,846.31,552.51,843.47,552.64,839.85z"/>
		<path d="M200.24,850.62c-2.33,0.77-4.53,1.74-6.83,2.21c-3.75,0.76-6.54-1.14-8.02-4.63c-1.21-2.84-0.03-6.69,3.19-8.16
			c1.68-0.76,3.53-1.19,5.34-1.61c1.8-0.42,3.65-0.65,5.69-0.99c0-1.1,0.31-2.22-0.09-2.95c-0.43-0.79-1.45-1.51-2.35-1.74
			c-2.58-0.66-5.05-0.59-6.78,2c-0.53,0.8-1.3,1.63-2.15,1.98c-0.61,0.25-1.66-0.11-2.27-0.55c-0.29-0.21-0.23-1.33,0.05-1.83
			c2.94-5.32,7.73-6.47,13.6-4.88c3.49,0.95,4.83,4.21,5.04,7.57c0.25,4.06,0.12,8.15,0.04,12.22c-0.05,2.43-1.32,2.98-3.74,1.78
			C200.67,850.9,200.4,850.72,200.24,850.62z M198.15,841.21c-1.6,0.2-3.33,0.19-4.9,0.68c-1.2,0.37-2.33,1.24-3.25,2.15
			c-0.83,0.82-1.25,1.98-0.55,3.21c0.62,1.08,1.44,1.79,2.75,1.92c3.49,0.35,7.49-2.43,8.29-5.95c0.11-0.46-0.42-1.19-0.85-1.6
			C199.34,841.32,198.72,841.35,198.15,841.21z"/>
		<path d="M135.36,841.56c-5.84,1.19-11.47,0.51-17,0.97c0.25,3.43,1.23,4.81,3.6,5.48c2.83,0.8,5.36,0.43,7.57-1.61
			c0.49-0.46,0.94-1.05,1.52-1.31c1.08-0.48,2.25-0.8,3.4,0.37c-0.3,2.27-1.67,3.95-3.57,5.15c-2.73,1.71-5.85,1.81-8.89,1.33
			c-5.66-0.88-9.07-6.59-8.43-13.73c0.4-4.48,5.75-9.01,10.74-9.11C130.63,829,134.41,833.12,135.36,841.56z M118.2,838.76
			c2.31,0,4.17,0.04,6.03-0.01c1.96-0.05,3.97,0.23,5.94-0.33c-1.32-3.91-3.02-5.48-5.87-5.63
			C121.71,832.67,119.63,834.51,118.2,838.76z"/>
		<path d="M379.91,841.53c-5.47,1.43-11.12,0.07-16.64,0.91c-0.81,1.73-0.21,3.05,0.89,4.18c1.36,1.39,3.04,2.14,5.03,2
			c2.27-0.17,4.23-1.04,5.93-2.6c0.73-0.67,1.58-1.24,2.47-1.66c0.31-0.15,1.01,0.14,1.32,0.45c0.3,0.3,0.56,0.98,0.42,1.32
			c-1.27,2.96-3.41,5.25-6.58,5.8c-6.26,1.08-11.4-1.05-13.3-7.9c-1.77-6.39,1.55-12.5,7.87-14.44c4.77-1.46,9.46,0.62,11.79,5.44
			C379.98,836.83,380.76,838.77,379.91,841.53z M363.23,838.67c4.71-0.02,8.83,0.51,12.84-0.08c0.6-1.82-0.24-2.96-1.28-3.77
			c-1.15-0.9-2.51-1.83-3.89-2.06c-1.18-0.2-2.61,0.38-3.77,0.95C365.32,834.61,363.94,836,363.23,838.67z"/>
		<path d="M615.15,852.25c-6.82-0.1-11.6-4.81-11.49-11.33c0.11-6.84,5.45-12.41,11.64-12.16c6.02,0.25,11.21,6.24,11.16,12.89
			C626.42,847.43,621.17,852.34,615.15,852.25z M622.07,840.68c0.26-5.98-4.58-9.38-10.08-7.13c-4.22,1.73-6.08,9.25-3,12.58
			c2.22,2.4,5.08,3.25,8.29,2.46c2.79-0.69,4.45-2.98,4.78-6.4C622.11,841.7,622.07,841.19,622.07,840.68z"/>
		<path d="M246.71,837.64c-3.41,0.82-3.52,0.86-4.43-1.1c-1.3-2.81-3.45-4.18-6.47-3.84c-3.03,0.34-5.96,3.44-6.3,6.49
			c-0.21,1.86-0.04,3.69,0.83,5.45c2.18,4.46,7.3,5.51,10.94,2.12c0.61-0.57,1.03-1.33,1.55-2.01c0.99-1.29,2.21-1.34,3.58-0.73
			c-0.24,5.64-3.37,8.64-8.98,8.57c-1.01-0.01-2.01-0.36-3.02-0.39c-4.32-0.13-6.8-2.74-8.4-6.36c-2.08-4.72-0.72-10.72,3.05-13.98
			c1.57-1.36,3.32-2.32,5.49-2.35c1.19-0.02,2.37-0.17,3.55-0.24c1.98-0.12,3.63,0.51,5.02,1.98
			C244.66,832.89,245.41,834.07,246.71,837.64z"/>
		<path d="M60,851.62c-0.09-1.17-0.22-2.16-0.23-3.15c-0.04-3.38,0.06-6.77-0.07-10.15c-0.14-3.5-1.59-5.23-4.19-5.38
			c-2.89-0.16-5.83,1.91-6.53,4.7c-0.21,0.81-0.24,1.68-0.23,2.52c0.03,2.38,0.12,4.75,0.21,7.13c0.03,0.85,0.2,1.69,0.21,2.53
			c0.02,1.28-0.59,2.04-1.63,2.17c-1.3,0.16-2.09-0.54-2.2-2.13c-0.11-1.52-0.09-3.06-0.15-4.58c-0.14-4.07-0.31-8.14-0.42-12.21
			c-0.03-0.99,0.13-1.99,0.18-2.81c1.9-1.62,3.29-0.76,4.76,0.57c2.24-1.04,4.51-2.03,7.23-1.42c4.44,0.99,6.96,3.43,7.25,7.9
			c0.3,4.72,0.33,9.45-0.07,13.96C62.84,852.37,61.71,852.18,60,851.62z"/>
		<path d="M435.51,829.54c2.98-0.41,5.53,0.63,7.4,3.19c0.39,0.53,0.78,1.19,0.83,1.81c0.05,0.57-0.2,1.43-0.62,1.72
			c-0.44,0.3-1.46,0.32-1.84,0c-0.74-0.63-1.16-1.63-1.82-2.39c-1.91-2.22-5.81-1.89-7.47,0.6c-0.85,1.27-0.62,2.92,0.77,3.47
			c1.87,0.74,3.85,1.23,5.83,1.63c2.75,0.56,4.55,2.04,5.46,4.73c0.9,2.67-0.08,5.74-2.63,6.92c-3.33,1.53-6.83,2-10.37,0.61
			c-2.61-1.02-3.97-3.12-4.49-5.75c-0.1-0.5,0.36-1.3,0.8-1.66c0.73-0.59,1.65-0.43,2.26,0.3c0.53,0.64,0.84,1.47,1.36,2.12
			c1.68,2.1,3.97,2.52,6.43,1.98c0.77-0.17,1.55-0.72,2.12-1.31c1.46-1.51,1.05-3.84-0.87-4.63c-1.23-0.51-2.62-0.62-3.93-0.96
			c-1.47-0.38-3.02-0.61-4.36-1.27c-2.97-1.45-3.71-3.81-2.33-6.79C429.47,830.76,431.84,829.16,435.51,829.54z"/>
		<path d="M512.84,829.78c0.61,6.93-0.12,13.87,0.53,21c-0.76,0.34-1.5,0.95-2.22,0.93c-0.91-0.02-1.83-0.81-2.72-0.77
			c-0.96,0.04-1.88,0.83-2.86,0.97c-2.54,0.36-5.05,0.5-7.26-1.32c-1.37-1.13-2.44-2.32-2.68-4.14c-0.13-1.01-0.49-1.99-0.53-3
			c-0.13-3.73-0.2-7.46-0.22-11.19c0-0.62,0.34-1.28,0.62-1.86c0.13-0.27,0.5-0.53,0.79-0.58c0.62-0.09,1.27-0.03,2.28-0.03
			c0.02,2.07,0.03,3.9,0.05,5.74c0.03,2.71-0.13,5.44,0.13,8.14c0.3,3.13,2.6,5.06,5.43,4.98c2.75-0.08,5.23-2.19,5.43-5.08
			c0.18-2.52-0.12-5.07-0.22-7.61c-0.06-1.52-0.22-3.03-0.21-4.55c0-0.45,0.33-0.98,0.67-1.32c0.33-0.33,0.84-0.58,1.3-0.63
			C511.61,829.4,512.1,829.63,512.84,829.78z"/>
		<path d="M320.42,829.81c1.02-0.07,2.14-0.14,3.43-0.23c3,4.83,4.05,10.44,6.86,15.48c1.63-1.34,1.97-3.2,2.7-4.8
			c1.41-3.07,2.66-6.22,4.09-9.28c0.73-1.57,1.07-1.57,3.91-0.68c-0.19,0.79-0.27,1.64-0.59,2.39c-2.4,5.6-4.85,11.17-7.3,16.75
			c-0.2,0.46-0.44,0.92-0.75,1.3c-0.93,1.13-3.44,1.1-3.99-0.23c-2.78-6.69-6.85-12.82-8.58-19.96
			C320.16,830.42,320.28,830.25,320.42,829.81z"/>
		<path d="M86.6,834.11c-1.43-0.78-2.57-1.4-3.58-1.95c-0.4-2.89,2.08-2.34,3.52-3.38c0.09-0.99,0.16-2.15,0.33-3.29
			c0.28-1.85,0.4-1.9,3.55-2.01c0.31,1.73,0.63,3.5,1.01,5.6c0.9,0.15,1.86,0.27,2.79,0.49c1.6,0.38,1.65,1.41,0.9,3.01
			c-1.2,0.29-2.63,0.63-4.15,0.99c-1.01,4.36-0.46,8.52,0.39,12.65c0.13,0.65,1.05,1.23,1.72,1.65c0.54,0.34,1.42,0.23,1.85,0.64
			c0.4,0.37,0.56,1.17,0.53,1.77c-0.02,0.37-0.54,0.92-0.94,1.03c-3.97,1.09-7.21-1.08-7.58-5.17c-0.2-2.18-0.03-4.4-0.08-6.6
			C86.82,837.71,86.69,835.87,86.6,834.11z"/>
		<path d="M466.26,833.56c-1.42-0.58-2.53-0.95-3.55-1.49c-0.86-0.46-0.67-2.14,0.29-2.46c0.78-0.26,1.64-0.3,2.73-0.49
			c0.26-1.76,0.52-3.55,0.78-5.29c3.13-0.17,3.13-0.17,4.03,5.19c0.8,0.16,1.78,0.25,2.66,0.58c0.55,0.2,1.21,0.69,1.38,1.19
			c0.32,0.95-0.35,1.55-1.24,1.85c-0.94,0.31-1.88,0.59-2.73,0.85c-0.92,3.98-0.4,7.7-0.3,11.4c0.04,1.67,0.77,2.91,2.65,3.17
			c0.46,0.06,0.94,0.34,1.29,0.65c0.69,0.59,0.54,2.24-0.19,2.75c-2.24,1.57-5.96,0.62-6.85-1.89c-0.44-1.24-0.55-2.64-0.58-3.98
			c-0.07-2.71,0.04-5.42,0.01-8.13C466.61,836.28,466.41,835.11,466.26,833.56z"/>
		<path d="M268.05,833.6c-1.37-0.41-2.62-0.78-3.79-1.13c-0.06-2.38-0.06-2.38,2.73-3.53c0.22-1.37,0.4-2.85,0.7-4.31
			c0.19-0.95,0.91-1.35,1.87-1.3c0.91,0.05,1.77,0.4,1.93,1.32c0.23,1.31,0.19,2.66,0.29,4.35c1.04,0.19,2.13,0.43,3.23,0.56
			c0.95,0.11,1.67,0.52,1.78,1.46c0.15,1.25-0.7,1.76-1.81,1.94c-0.82,0.13-1.63,0.28-2.6,0.45c-0.83,4.95-1.97,9.71,0.23,14.53
			c1.24,0.48,2.45,0.95,3.96,1.54c-0.47,0.93-0.66,2-1.19,2.22c-2.7,1.14-5.27,0.14-6.26-2.49c-0.52-1.38-0.68-2.95-0.74-4.45
			c-0.11-2.87-0.02-5.75-0.05-8.62C268.32,835.32,268.16,834.51,268.05,833.6z"/>
		<path d="M156.92,851.55c-0.51-3.86-0.71-18.9-0.33-21.44c1.84-1.55,3.49,0.65,5.11,0.26c1.61-0.38,3.1-1.43,4.84-1.05
			c0.52,0.11,1.24,0.83,1.28,1.32c0.06,0.74-0.17,1.75-0.68,2.21c-0.54,0.5-1.55,0.49-2.35,0.71c-3.12,0.87-4.6,2.53-4.71,5.72
			c-0.1,2.7,0.08,5.41,0.11,8.11c0.01,0.84,0,1.69-0.08,2.53C159.98,851.34,159.62,851.52,156.92,851.55z"/>
		<path d="M22.5,829.78c0.92,3.56,1.03,16.73,0.13,21.84c-0.53,0.12-1.15,0.35-1.78,0.38c-0.46,0.02-0.94-0.2-1.55-0.35
			c-0.89-2.33-0.02-4.7-0.2-7.03c-0.18-2.36-0.25-4.73-0.3-7.1c-0.05-2.35-0.01-4.7-0.01-6.99C19.91,829.16,21.18,829.3,22.5,829.78
			z"/>
		<path d="M300.81,841.16c-0.14,2.86-0.25,5.72-0.43,8.58c-0.08,1.3-0.78,1.91-1.89,1.84c-1.14-0.07-1.91-0.62-2.1-1.77
			c-0.11-0.66-0.12-1.34-0.12-2.02c0-4.55,0.01-9.1,0.03-13.65c0-0.84,0.02-1.69,0.12-2.52c0.17-1.38,1.07-2.09,2.4-2
			c1.22,0.08,1.86,0.83,1.88,1.94c0.06,3.2,0.02,6.4,0.02,9.6C300.76,841.16,300.79,841.16,300.81,841.16z"/>
		<path d="M582.62,851.53c-3.6,0.53-4,0.36-4-2.13c-0.01-6.42-0.15-12.85,0.71-19.11c0.44-0.3,0.7-0.64,0.97-0.64
			c2.59,0,3.09,0.51,2.93,2.79c-0.22,3.2-0.48,6.41-0.58,9.61C582.54,845.1,582.62,848.14,582.62,851.53z"/>
		<path d="M583.51,822.58c-0.08,1.36-1.23,2.31-2.76,2.28c-1.28-0.02-2.33-0.97-2.34-2.11c-0.01-1.59,1.38-3.09,2.73-2.94
			C582.43,819.95,583.58,821.3,583.51,822.58z"/>
		<path d="M18.54,822.78c-0.06-1.62,0.85-2.88,2.14-2.95c1.26-0.07,2.69,1.13,2.85,2.41c0.16,1.31-0.96,2.39-2.6,2.51
			C19.5,824.86,18.59,824.11,18.54,822.78z"/>
		<path d="M300.8,822.45c-0.08,1.55-1.13,2.42-2.67,2.2c-1.11-0.15-1.8-0.96-1.75-2.05c0.07-1.5,1.12-2.34,2.72-2.2
			C300.2,820.5,300.86,821.3,300.8,822.45z"/>
	</g>
</g>
</svg>
